<?xml version="1.0" standalone="no"?>
<!DOCTYPE svg PUBLIC "-//W3C//DTD SVG 20010904//EN"
 "http://www.w3.org/TR/2001/REC-SVG-20010904/DTD/svg10.dtd">
<svg version="1.0" xmlns="http://www.w3.org/2000/svg"
 width="1920.000000pt" height="1278.000000pt" viewBox="0 0 1920.000000 1278.000000"
 preserveAspectRatio="xMidYMid meet">

<g transform="translate(0.000000,1278.000000) scale(0.100000,-0.100000)"
fill="#000000" stroke="none">
<path d="M5114 8534 c-186 -31 -387 -115 -533 -224 -42 -31 -119 -101 -171
-156 l-94 -100 -106 106 c-110 111 -205 180 -331 242 -88 44 -224 89 -324 109
-137 27 -550 12 -570 -21 -9 -14 483 -477 651 -612 135 -109 225 -150 464
-211 200 -52 205 -54 280 -123 41 -38 101 -80 148 -103 46 -23 93 -56 115 -80
40 -44 48 -68 20 -55 -32 14 -356 124 -427 144 -88 25 -111 16 -191 -73 -58
-63 -149 -138 -227 -186 -47 -28 -49 -53 -9 -108 36 -50 102 -83 165 -83 51 0
142 38 173 73 14 16 6 13 -42 -10 -80 -41 -114 -47 -180 -33 -42 9 -66 21 -95
49 -49 47 -52 76 -9 99 63 35 195 141 236 189 23 28 58 58 78 67 l36 17 197
-67 c321 -109 293 -91 537 -342 l213 -217 158 -89 c88 -49 227 -133 309 -186
195 -126 489 -290 500 -278 2 1 28 53 59 113 266 531 335 1238 155 1598 -71
141 -192 293 -301 377 -107 82 -272 148 -440 175 -114 18 -333 18 -444 -1z"/>
<path d="M2271 7778 c-30 -80 -45 -191 -46 -333 0 -157 11 -238 52 -395 112
-429 415 -908 857 -1355 142 -144 173 -170 111 -95 l-20 25 25 -20 c14 -11 27
-22 30 -25 3 -3 22 -6 43 -6 36 0 51 18 25 30 -7 3 -2 3 12 0 14 -4 28 -11 32
-17 4 -8 33 -7 96 1 117 16 1312 17 1312 2 0 -7 7 -7 20 0 13 7 83 11 183 11
89 -1 173 0 186 1 13 2 26 -3 28 -9 3 -9 -10 -13 -46 -13 -28 0 -51 -4 -51
-10 0 -5 18 -10 40 -10 30 0 47 7 66 25 14 14 30 23 35 20 14 -9 11 -25 -6
-25 -8 0 -15 -4 -15 -10 0 -15 26 -12 40 5 7 8 20 14 29 14 13 -1 13 -2 -2 -6
-19 -5 -19 -24 0 -30 6 -2 14 5 18 16 8 25 22 27 46 5 17 -15 18 -15 14 5 -3
18 -1 20 16 11 11 -6 25 -8 32 -4 6 5 5 -1 -3 -11 -14 -17 -13 -18 4 -12 14 6
17 4 12 -9 -6 -15 -4 -15 10 -3 10 8 12 15 5 17 -6 2 -11 10 -11 18 0 19 -229
213 -336 285 l-88 59 -82 -6 c-77 -6 -82 -6 -94 15 -6 12 -43 67 -81 122 -39
55 -84 130 -101 167 -42 94 -130 324 -125 328 2 3 23 -20 45 -49 71 -95 137
-152 195 -171 11 -3 34 -40 55 -86 20 -44 40 -80 43 -80 11 0 -10 93 -27 118
-18 28 -14 34 27 39 58 6 58 18 1 19 -96 1 -152 38 -288 192 -80 90 -85 98
-113 190 -16 54 -32 125 -35 159 l-6 62 34 -6 c19 -3 42 0 52 7 16 10 15 10
-10 5 -31 -7 -79 8 -110 34 -17 15 -17 13 2 -23 11 -21 24 -68 27 -105 13
-123 93 -378 192 -610 20 -47 72 -137 115 -199 43 -62 78 -118 78 -125 -1 -34
-76 -87 -124 -87 -30 0 -52 20 -176 154 -116 126 -196 247 -239 359 -19 48
-36 86 -38 84 -2 -3 12 -47 31 -100 37 -102 105 -213 188 -306 26 -30 48 -60
48 -67 0 -33 -115 -70 -170 -54 -39 11 -119 70 -120 88 0 7 -17 31 -38 55 -55
60 -70 84 -167 262 -99 182 -123 216 -70 100 72 -157 159 -315 202 -364 23
-27 43 -56 43 -65 0 -20 -53 -54 -98 -62 -35 -7 -56 3 -111 55 -26 25 -41 31
-60 28 -35 -7 -117 38 -220 119 -64 51 -81 69 -75 82 21 47 15 97 -16 146 -37
58 -48 57 -19 -2 45 -90 18 -143 -74 -144 -50 -1 -87 18 -113 57 -19 29 -17
34 21 41 67 12 113 53 122 107 7 47 -28 122 -68 142 -36 19 -63 19 -28 0 36
-19 58 -57 65 -107 5 -34 2 -48 -15 -69 -32 -41 -154 -64 -202 -39 -32 18 -52
68 -47 121 5 44 3 47 -21 52 -47 10 -61 29 -73 98 -14 78 -5 107 48 161 l34
36 -46 109 c-25 59 -60 150 -76 201 -17 51 -39 104 -50 118 -19 23 -151 127
-263 206 -461 324 -510 358 -520 358 -3 0 -9 -10 -14 -22z m842 -699 c21 -52
41 -100 44 -108 7 -15 -15 -10 -83 19 -72 31 -101 148 -44 177 14 7 29 11 35
10 5 -2 26 -46 48 -98z m147 -1449 c0 -5 -2 -10 -4 -10 -3 0 -8 5 -11 10 -3 6
-1 10 4 10 6 0 11 -4 11 -10z"/>
<path d="M3017 7348 c6 -11 31 -10 37 1 3 5 -5 8 -18 7 -13 0 -22 -4 -19 -8z"/>
<path d="M10647 6894 c-171 -41 -293 -154 -355 -328 -22 -61 -26 -89 -26 -191
-1 -179 36 -282 140 -394 107 -116 271 -169 446 -143 93 13 199 60 262 115
l38 34 -32 36 c-18 21 -37 37 -44 37 -7 0 -28 -12 -47 -26 -91 -68 -202 -94
-316 -74 -110 19 -182 66 -238 155 -40 63 -54 103 -65 188 -17 139 23 285 105
376 21 22 67 55 103 73 63 31 72 33 177 33 75 0 128 -6 168 -18 l57 -18 0 -54
c0 -29 4 -65 10 -79 8 -23 15 -26 55 -26 l45 0 0 124 0 124 -41 16 c-132 53
-320 70 -442 40z"/>
<path d="M6930 6856 c0 -42 2 -45 33 -51 74 -15 68 31 65 -437 l-3 -421 -45
-11 c-44 -11 -45 -12 -48 -53 l-3 -43 370 0 371 0 0 115 0 115 -37 0 c-53 0
-64 -11 -70 -64 l-6 -46 -193 0 -194 0 0 415 0 415 28 5 c73 15 77 18 80 63
l3 42 -175 0 -176 0 0 -44z"/>
<path d="M7777 6893 c-9 -9 -9 -55 1 -69 4 -7 27 -16 52 -21 l45 -9 0 -424 0
-424 -44 -8 c-51 -9 -61 -19 -61 -65 l0 -33 181 0 180 0 -3 43 c-3 40 -5 42
-43 51 -22 4 -46 10 -52 12 -10 3 -13 96 -13 424 0 328 3 421 13 424 6 2 30 8
52 12 38 9 40 11 43 52 l3 42 -174 0 c-95 0 -177 -3 -180 -7z"/>
<path d="M8227 6893 c-9 -9 -9 -55 1 -70 4 -6 29 -17 55 -23 l47 -12 -2 -421
-3 -421 -39 -8 c-53 -11 -66 -24 -66 -64 l0 -34 181 0 180 0 -3 42 c-3 43 -3
43 -53 54 l-50 10 -3 172 -2 172 205 0 205 0 0 60 0 60 -205 0 -205 0 0 185 0
185 214 0 213 0 7 -61 c3 -33 8 -65 12 -70 3 -5 25 -9 50 -9 l44 0 0 130 0
130 -388 0 c-214 0 -392 -3 -395 -7z"/>
<path d="M9090 6856 c0 -42 2 -45 33 -51 74 -15 67 31 67 -439 l0 -423 -47 -9
c-48 -9 -48 -9 -51 -51 l-3 -43 380 0 381 0 0 120 0 120 -50 0 c-54 0 -54 -1
-62 -95 l-3 -30 -197 -3 -198 -2 0 185 0 185 195 0 195 0 0 55 0 55 -195 0
-195 0 0 175 0 175 199 0 198 0 6 -61 c6 -69 16 -80 67 -77 l35 3 0 125 0 125
-377 3 -378 2 0 -44z"/>
<path d="M11222 6858 c3 -42 4 -43 48 -54 l45 -11 3 -426 2 -427 -24 0 c-14 0
-36 -4 -50 -10 -22 -8 -26 -16 -26 -50 l0 -40 175 0 175 0 0 35 c0 36 -15 48
-82 69 -16 5 -18 23 -18 191 l0 185 285 0 285 0 -2 -187 -3 -187 -44 -8 c-51
-9 -61 -19 -61 -65 l0 -33 181 0 180 0 -3 42 c-3 44 -6 46 -80 62 l-28 6 0
421 c0 327 3 420 13 423 6 2 30 8 52 12 38 9 40 11 43 52 l3 42 -175 0 -176 0
0 -44 0 -44 48 -9 47 -8 3 -188 2 -187 -285 0 -285 0 2 187 3 188 48 8 47 9 0
44 0 44 -176 0 -175 0 3 -42z"/>
<path d="M12645 6423 l-190 -476 -42 -18 c-39 -17 -43 -22 -43 -54 l0 -35 155
0 155 0 0 29 c0 34 -23 61 -51 61 -33 0 -31 21 10 125 l38 100 230 3 230 2 36
-92 c19 -51 38 -100 42 -109 4 -11 -5 -20 -35 -32 -36 -14 -40 -19 -40 -51 l0
-36 150 0 150 0 0 38 c0 36 -3 40 -37 50 l-38 12 -190 479 -190 480 -75 1 -75
0 -190 -477z m275 314 c0 -7 40 -116 89 -242 l88 -230 -185 -3 c-102 -1 -186
-1 -188 1 -2 2 34 100 80 218 46 117 87 229 91 247 6 30 25 36 25 9z"/>
<path d="M13530 6856 l0 -44 48 -9 47 -8 0 -425 0 -425 -47 -8 -48 -9 0 -44 0
-44 176 0 175 0 -3 43 c-3 40 -5 42 -43 51 -22 4 -46 10 -52 12 -10 3 -13 96
-13 424 0 328 3 421 13 424 6 2 30 8 52 12 38 9 40 11 43 52 l3 42 -175 0
-176 0 0 -44z"/>
<path d="M13980 6860 c0 -43 9 -51 73 -64 l27 -6 0 -424 0 -423 -47 -9 c-48
-9 -48 -9 -51 -51 l-3 -43 175 0 176 0 0 33 c0 46 -9 55 -67 63 l-53 7 -2 359
-3 360 27 -33 c14 -19 151 -196 303 -394 153 -198 286 -368 297 -377 13 -11
37 -18 64 -18 l44 0 0 475 0 474 38 7 c61 11 72 20 72 64 l0 40 -175 0 -175 0
0 -40 c0 -44 11 -53 83 -65 l37 -6 0 -355 0 -356 -316 411 -315 411 -105 0
-104 0 0 -40z"/>
<path d="M3313 6751 c60 -67 69 -159 20 -213 -26 -29 9 -23 35 5 26 28 37 74
28 122 -8 40 -65 110 -97 118 -16 4 -13 -2 14 -32z"/>
<path d="M3830 6613 c0 -5 12 -20 26 -34 24 -21 26 -22 16 -3 -13 25 -42 50
-42 37z"/>
<path d="M3665 6458 c21 -70 210 -396 223 -384 9 9 -210 406 -225 406 -2 0 -1
-10 2 -22z"/>
<path d="M3680 5570 c0 -5 18 -10 40 -10 22 0 40 5 40 10 0 6 -18 10 -40 10
-22 0 -40 -4 -40 -10z"/>
<path d="M4240 5570 c0 -6 33 -10 80 -10 47 0 80 4 80 10 0 6 -33 10 -80 10
-47 0 -80 -4 -80 -10z"/>
<path d="M4720 5570 c0 -13 40 -13 60 0 11 7 5 10 -22 10 -21 0 -38 -4 -38
-10z"/>
<path d="M4880 5570 c0 -5 18 -10 40 -10 22 0 40 5 40 10 0 6 -18 10 -40 10
-22 0 -40 -4 -40 -10z"/>
<path d="M5340 5571 c0 -6 5 -13 10 -16 6 -3 10 1 10 9 0 9 -4 16 -10 16 -5 0
-10 -4 -10 -9z"/>
<path d="M3300 5560 c0 -5 5 -10 10 -10 6 0 10 5 10 10 0 6 -4 10 -10 10 -5 0
-10 -4 -10 -10z"/>
<path d="M3300 5528 c0 -4 4 -8 9 -8 6 0 12 4 15 8 3 5 -1 9 -9 9 -8 0 -15 -4
-15 -9z"/>
<path d="M3370 5466 c0 -2 8 -10 18 -17 15 -13 16 -12 3 4 -13 16 -21 21 -21
13z"/>
</g>
</svg>
